<?xml version="1.0" standalone="no"?>
<!DOCTYPE svg PUBLIC "-//W3C//DTD SVG 20010904//EN"
 "http://www.w3.org/TR/2001/REC-SVG-20010904/DTD/svg10.dtd">
<svg version="1.0" xmlns="http://www.w3.org/2000/svg"
 width="512.000000pt" height="512.000000pt" viewBox="0 0 512.000000 512.000000"
 preserveAspectRatio="xMidYMid meet">
<metadata>
Created by potrace 1.15, written by Peter Selinger 2001-2017
</metadata>
<g transform="translate(0.000000,512.000000) scale(0.100000,-0.100000)"
fill="#000000" stroke="none">
<path d="M1823 5106 c-23 -8 -62 -25 -85 -39 -49 -28 -132 -113 -150 -152 -11
-25 -13 -25 -119 -25 -153 0 -299 -17 -387 -45 -313 -100 -540 -390 -565 -722
l-5 -63 2049 0 2049 0 -4 23 c-3 12 -7 53 -11 90 -21 238 -185 482 -410 608
-137 77 -295 109 -534 109 l-106 0 -19 35 c-29 53 -119 133 -183 163 l-58 27
-710 2 c-567 2 -718 -1 -752 -11z"/>
<path d="M763 2213 c3 -1815 -4 -1652 78 -1818 91 -186 262 -324 463 -375 77
-19 114 -20 1256 -20 1145 0 1179 1 1256 20 246 62 439 250 516 500 l23 75 3
1618 2 1617 -1800 0 -1800 0 3 -1617z m1573 782 c27 -14 85 -61 133 -108 l83
-85 -38 -58 c-21 -33 -93 -151 -160 -264 -67 -113 -129 -213 -136 -222 -12
-16 -30 -8 -223 107 -115 68 -209 128 -208 134 2 10 251 405 285 454 49 69
171 89 264 42z m692 -10 c25 -14 57 -58 114 -155 44 -74 82 -137 84 -139 2 -2
38 17 81 42 43 25 79 44 81 42 2 -2 -252 -439 -263 -453 -1 -1 -120 3 -265 10
l-263 13 87 48 c47 27 88 53 91 58 6 9 -82 206 -127 283 -54 91 -111 170 -163
224 l-52 53 281 -3 c260 -3 283 -4 314 -23z m533 -845 c135 -230 144 -248 143
-295 -2 -128 -90 -205 -304 -264 l-69 -19 -45 81 c-26 45 -102 172 -171 282
-84 135 -120 202 -112 207 7 4 102 63 212 132 110 69 200 124 201 123 1 -1 66
-112 145 -247z m-1647 121 l58 -6 109 -229 c60 -126 109 -231 109 -233 0 -2
-36 19 -80 47 -44 27 -85 50 -91 50 -14 0 -33 -23 -123 -150 -93 -132 -141
-220 -177 -322 -15 -44 -29 -81 -31 -83 -1 -2 -59 103 -128 233 -157 297 -155
286 -69 432 91 154 105 182 94 187 -5 2 -41 24 -80 49 l-70 45 210 -7 c116 -3
236 -9 269 -13z m1009 -738 c14 -13 340 -16 433 -3 47 6 113 20 147 30 33 11
62 18 63 17 6 -6 -241 -465 -263 -489 -39 -41 -66 -48 -228 -56 l-150 -7 3
-100 4 -100 -142 225 c-78 124 -142 228 -143 231 -1 4 57 108 128 232 l130
225 5 -98 c3 -54 9 -102 13 -107z m-778 -13 c138 -6 268 -13 290 -16 l40 -4
-9 -243 c-4 -133 -11 -245 -15 -248 -6 -7 -497 25 -556 36 -43 7 -96 55 -124
110 -38 75 -25 192 39 361 9 24 14 26 48 20 20 -3 150 -11 287 -16z"/>
</g>
</svg>
