<?xml version="1.0" standalone="no"?>
<!DOCTYPE svg PUBLIC "-//W3C//DTD SVG 20010904//EN"
 "http://www.w3.org/TR/2001/REC-SVG-20010904/DTD/svg10.dtd">
<svg version="1.0" xmlns="http://www.w3.org/2000/svg"
 width="512.000000pt" height="512.000000pt" viewBox="0 0 512.000000 512.000000"
 preserveAspectRatio="xMidYMid meet">
<metadata>
Created by potrace 1.15, written by Peter Selinger 2001-2017
</metadata>
<g transform="translate(0.000000,512.000000) scale(0.100000,-0.100000)"
fill="#000000" stroke="none">
<path d="M203 4958 c-174 -172 -196 -198 -191 -231 3 -19 32 5 192 163 103
102 192 193 197 203 8 14 5 17 -17 17 -21 0 -60 -33 -181 -152z"/>
<path d="M303 4858 c-140 -139 -264 -265 -275 -281 -10 -15 -18 -37 -16 -50 3
-18 49 23 292 263 158 157 292 293 297 303 8 14 5 17 -17 17 -22 0 -75 -47
-281 -252z"/>
<path d="M402 4758 c-194 -194 -362 -365 -373 -381 -11 -15 -19 -37 -17 -50 4
-18 67 40 392 363 213 212 392 393 397 403 8 14 5 17 -18 17 -22 0 -89 -62
-381 -352z"/>
<path d="M502 4658 c-249 -249 -462 -465 -473 -481 -11 -15 -19 -37 -17 -50 4
-18 84 57 492 463 268 267 492 493 497 503 8 14 5 17 -18 17 -22 0 -104 -76
-481 -452z"/>
<path d="M602 4558 c-304 -304 -562 -565 -573 -581 -11 -15 -19 -37 -17 -50 4
-18 101 75 592 563 323 322 592 593 597 603 8 14 5 17 -18 17 -23 0 -118 -91
-581 -552z"/>
<path d="M702 4458 c-359 -359 -662 -665 -673 -681 -11 -15 -19 -37 -17 -50 4
-18 118 92 692 663 378 377 692 693 697 703 8 14 5 17 -18 17 -23 0 -133 -106
-681 -652z"/>
<path d="M802 4358 c-414 -414 -762 -765 -773 -781 -11 -15 -19 -37 -17 -50 4
-18 136 109 792 763 433 432 792 793 797 803 8 14 5 17 -18 17 -23 0 -148
-120 -781 -752z"/>
<path d="M902 4258 c-469 -469 -862 -865 -873 -881 -11 -15 -19 -37 -17 -50 4
-18 153 126 892 863 488 487 892 893 897 903 8 14 5 17 -18 17 -23 0 -162
-135 -881 -852z"/>
<path d="M1002 4158 c-524 -524 -962 -965 -973 -981 -11 -15 -19 -37 -17 -50
4 -18 170 144 992 963 543 542 992 993 997 1003 8 14 5 17 -18 17 -23 0 -177
-149 -981 -952z"/>
<path d="M1102 4058 c-579 -579 -1062 -1065 -1073 -1081 -11 -15 -19 -37 -17
-50 4 -18 188 161 1092 1063 598 597 1092 1093 1097 1103 8 14 5 17 -18 17
-23 0 -191 -164 -1081 -1052z"/>
<path d="M1202 3958 c-634 -634 -1162 -1165 -1173 -1181 -11 -15 -19 -37 -17
-50 4 -18 205 178 1192 1163 653 652 1192 1193 1197 1203 8 14 5 17 -18 17
-23 0 -206 -178 -1181 -1152z"/>
<path d="M1302 3858 c-689 -689 -1262 -1265 -1273 -1281 -11 -15 -19 -37 -17
-50 4 -18 222 195 1292 1263 708 707 1292 1293 1297 1303 8 14 5 17 -18 17
-23 0 -220 -193 -1281 -1252z"/>
<path d="M1402 3758 c-744 -744 -1362 -1365 -1373 -1381 -11 -15 -19 -37 -17
-50 4 -18 239 213 1392 1363 763 762 1392 1393 1397 1403 8 14 5 17 -18 17
-23 0 -235 -207 -1381 -1352z"/>
<path d="M1892 4048 c-1020 -1020 -1061 -1063 -1031 -1066 31 -3 85 49 1081
1045 577 576 1054 1056 1059 1066 8 14 5 17 -18 17 -23 0 -193 -165 -1091
-1062z"/>
<path d="M2092 4048 c-1020 -1020 -1061 -1063 -1031 -1066 31 -3 85 49 1081
1045 577 576 1054 1056 1059 1066 8 14 5 17 -18 17 -23 0 -193 -165 -1091
-1062z"/>
<path d="M2962 4717 c-371 -371 -393 -395 -386 -421 6 -27 21 -14 411 375 222
222 409 412 414 422 8 14 5 17 -18 17 -22 0 -95 -67 -421 -393z"/>
<path d="M3087 4641 c-444 -443 -469 -470 -463 -497 7 -27 25 -10 487 452 264
263 485 487 490 497 8 14 5 17 -18 17 -23 0 -106 -78 -496 -469z"/>
<path d="M3211 4566 c-515 -514 -543 -545 -537 -572 7 -27 29 -6 562 527 305
305 560 562 565 572 8 14 5 17 -18 17 -23 0 -117 -89 -572 -544z"/>
<path d="M3338 4493 c-601 -601 -643 -646 -610 -667 8 -5 1282 1263 1282 1277
0 4 -12 7 -27 7 -23 0 -132 -104 -645 -617z"/>
<path d="M3459 4413 c-655 -655 -697 -700 -688 -723 9 -23 47 13 715 680 388
388 710 713 715 723 8 14 5 17 -18 17 -23 0 -139 -111 -724 -697z"/>
<path d="M3584 4338 c-725 -726 -772 -774 -763 -798 9 -23 51 17 790 755 429
429 785 788 790 798 8 14 5 17 -18 17 -23 0 -150 -122 -799 -772z"/>
<path d="M3708 4263 c-855 -855 -860 -861 -831 -893 5 -5 1710 1698 1724 1723
8 14 5 17 -18 17 -23 0 -161 -134 -875 -847z"/>
<path d="M3833 4188 c-931 -931 -936 -936 -906 -968 5 -5 1860 1848 1874 1873
8 14 5 17 -18 17 -23 0 -172 -145 -950 -922z"/>
<path d="M3958 4113 c-549 -549 -998 -1002 -998 -1008 1 -57 21 -39 1025 965
554 553 1011 1013 1016 1023 8 14 5 17 -18 17 -23 0 -183 -155 -1025 -997z"/>
<path d="M4072 4025 c-1000 -998 -1041 -1040 -1010 -1043 30 -3 82 47 1025
990 547 546 1003 1005 1014 1021 11 15 19 37 17 50 -4 18 -180 -153 -1046
-1018z"/>
<path d="M4172 3925 c-905 -902 -941 -940 -910 -943 30 -3 78 43 925 890 492
491 903 905 914 921 11 15 19 37 17 50 -4 18 -163 -136 -946 -918z"/>
<path d="M4272 3825 c-809 -807 -841 -840 -810 -843 30 -3 73 38 825 790 437
436 803 805 814 821 11 15 19 37 17 50 -4 18 -145 -119 -846 -818z"/>
<path d="M4372 3725 c-714 -711 -741 -740 -711 -743 31 -3 70 34 726 690 382
381 703 705 714 721 11 15 19 37 17 50 -4 18 -128 -101 -746 -718z"/>
<path d="M1880 3635 c-631 -631 -654 -655 -620 -655 33 0 70 35 647 613 489
489 613 620 623 650 7 21 10 40 8 42 -2 2 -298 -290 -658 -650z"/>
<path d="M4472 3625 c-618 -616 -641 -640 -611 -643 31 -3 65 29 626 590 327
326 603 605 614 621 11 15 19 37 17 50 -4 18 -111 -84 -646 -618z"/>
<path d="M4572 3525 c-523 -521 -541 -540 -511 -543 31 -3 60 24 526 490 272
271 503 505 514 521 11 15 19 37 17 50 -4 18 -93 -67 -546 -518z"/>
<path d="M1935 3490 c-492 -492 -509 -510 -475 -510 33 0 63 28 496 463 409
409 463 467 477 510 9 26 15 47 14 47 -1 0 -232 -229 -512 -510z"/>
<path d="M4672 3425 c-428 -425 -441 -440 -411 -443 30 -3 56 20 426 390 217
216 403 405 414 421 11 15 19 37 17 50 -4 18 -76 -50 -446 -418z"/>
<path d="M1985 3340 c-349 -350 -359 -360 -325 -360 33 0 57 21 347 313 257
257 315 320 328 356 8 24 14 45 12 47 -2 2 -165 -159 -362 -356z"/>
<path d="M4229 2784 c-757 -757 -875 -879 -871 -900 2 -13 7 -24 11 -24 3 0
399 393 879 873 729 730 872 877 872 900 0 15 -3 27 -7 27 -4 0 -402 -394
-884 -876z"/>
<path d="M4257 2610 c-864 -861 -869 -868 -840 -900 5 -5 1656 1644 1684 1683
11 15 19 37 17 50 -4 18 -148 -121 -861 -833z"/>
<path d="M2035 3190 c-207 -207 -209 -210 -175 -210 32 0 49 14 202 168 123
124 169 177 178 205 7 21 10 40 8 42 -2 2 -98 -90 -213 -205z"/>
<path d="M4282 2435 c-838 -836 -844 -843 -815 -875 5 -5 1606 1594 1634 1633
11 15 19 37 17 50 -4 18 -144 -117 -836 -808z"/>
<path d="M4307 2260 c-444 -443 -807 -809 -807 -815 1 -57 22 -38 800 740 430
429 790 792 801 808 11 15 19 37 17 50 -4 18 -139 -113 -811 -783z"/>
<path d="M387 2542 c-312 -313 -377 -383 -377 -405 0 -23 3 -26 18 -18 9 5
188 181 396 390 329 329 378 382 367 395 -8 9 -16 16 -20 16 -4 0 -176 -170
-384 -378z"/>
<path d="M4326 2081 c-740 -740 -778 -780 -770 -805 9 -25 41 6 787 752 649
649 777 782 777 805 0 15 -3 27 -7 27 -4 0 -358 -350 -787 -779z"/>
<path d="M446 2401 c-359 -360 -436 -442 -436 -464 0 -15 3 -27 7 -27 8 0 903
892 903 900 0 3 -8 10 -19 17 -16 10 -67 -38 -455 -426z"/>
<path d="M502 2257 c-410 -411 -492 -497 -492 -520 0 -23 3 -26 17 -18 10 5
242 235 517 509 458 459 497 501 478 511 -11 6 -22 11 -24 11 -2 0 -225 -222
-496 -493z"/>
<path d="M562 2117 c-458 -458 -552 -557 -552 -580 0 -15 3 -27 7 -27 10 0
1133 1123 1133 1132 0 4 -8 12 -18 17 -16 8 -99 -70 -570 -542z"/>
<path d="M4351 1906 c-716 -716 -753 -755 -745 -780 9 -25 40 5 762 727 627
628 752 757 752 780 0 15 -3 27 -7 27 -4 0 -347 -339 -762 -754z"/>
<path d="M3805 2528 c-133 -96 -505 -461 -498 -489 3 -11 9 -21 12 -24 4 -2
140 129 302 291 161 162 292 294 289 294 -3 0 -50 -33 -105 -72z"/>
<path d="M617 1972 c-504 -505 -607 -612 -607 -635 0 -15 3 -27 7 -27 4 0 288
280 630 622 481 481 620 625 611 635 -6 7 -16 13 -22 13 -6 0 -285 -274 -619
-608z"/>
<path d="M677 1832 c-559 -560 -667 -672 -667 -695 0 -23 3 -26 18 -18 9 5
318 311 686 680 581 581 668 672 657 685 -8 9 -16 16 -20 16 -3 0 -307 -301
-674 -668z"/>
<path d="M4380 1734 c-694 -693 -732 -733 -726 -760 7 -26 37 2 717 682 391
390 719 721 730 737 11 15 19 37 17 50 -4 18 -126 -100 -738 -709z"/>
<path d="M736 1691 c-605 -606 -726 -731 -726 -754 0 -15 3 -27 7 -27 9 0
1483 1472 1483 1480 0 3 -8 10 -19 17 -16 10 -100 -70 -745 -716z"/>
<path d="M792 1547 c-658 -658 -782 -787 -782 -810 0 -23 3 -26 18 -18 9 5
372 365 806 799 723 724 787 791 768 801 -11 6 -22 11 -24 11 -2 0 -355 -352
-786 -783z"/>
<path d="M4405 1559 c-671 -669 -707 -708 -701 -735 7 -26 36 1 692 657 377
376 694 696 705 712 11 15 19 37 17 50 -4 18 -122 -96 -713 -684z"/>
<path d="M852 1407 c-704 -704 -842 -847 -842 -870 0 -15 3 -27 7 -27 10 0
1713 1703 1713 1712 0 4 -8 12 -18 17 -16 8 -141 -113 -860 -832z"/>
<path d="M907 1262 c-756 -756 -897 -902 -897 -925 0 -23 3 -26 18 -18 9 5
422 415 916 909 878 879 928 932 874 932 -7 0 -417 -404 -911 -898z"/>
<path d="M4096 1050 c-559 -558 -1022 -1023 -1027 -1033 -8 -14 -5 -17 18 -17
23 0 181 153 1011 983 541 540 992 994 1003 1010 11 15 19 37 17 50 -4 18
-175 -149 -1022 -993z"/>
<path d="M887 1042 c-739 -739 -877 -882 -877 -905 0 -23 3 -26 18 -18 9 5
400 394 868 863 687 688 854 860 864 891 7 21 10 40 8 42 -2 3 -399 -391 -881
-873z"/>
<path d="M4196 950 c-504 -503 -922 -923 -927 -932 -8 -15 -5 -18 18 -18 23 0
167 139 911 882 486 486 892 895 903 911 11 15 19 37 17 50 -4 18 -158 -132
-922 -893z"/>
<path d="M4296 850 c-449 -448 -822 -823 -827 -832 -8 -15 -5 -18 18 -18 23 0
152 124 811 783 431 430 792 794 803 810 11 15 19 37 17 50 -4 18 -141 -114
-822 -793z"/>
<path d="M867 822 c-444 -444 -807 -811 -807 -815 0 -4 12 -7 27 -7 23 0 154
127 794 766 704 704 767 769 781 815 9 27 15 49 14 49 0 0 -365 -363 -809
-808z"/>
<path d="M1837 792 c-427 -427 -777 -781 -777 -785 0 -4 12 -7 27 -7 23 0 155
128 800 772 765 764 796 798 739 798 -6 0 -361 -350 -789 -778z"/>
<path d="M2320 1446 c-106 -79 -227 -196 -795 -767 -559 -561 -666 -673 -648
-677 13 -2 35 6 50 17 30 21 1531 1521 1523 1521 -3 0 -61 -43 -130 -94z"/>
<path d="M1995 748 c-617 -618 -736 -742 -718 -746 13 -2 35 6 50 17 16 11
347 339 737 730 616 616 708 712 697 725 -8 9 -16 16 -20 16 -3 0 -339 -334
-746 -742z"/>
<path d="M4396 750 c-394 -393 -722 -723 -727 -732 -8 -15 -5 -18 18 -18 23 0
137 110 711 683 376 375 692 694 703 710 11 15 19 37 17 50 -4 18 -124 -97
-722 -693z"/>
<path d="M2157 711 c-384 -383 -697 -700 -697 -704 0 -4 12 -7 27 -7 23 0 142
115 715 687 378 378 688 690 688 693 0 3 -8 10 -18 17 -17 10 -98 -68 -715
-686z"/>
<path d="M917 672 c-361 -362 -657 -661 -657 -665 0 -4 12 -7 27 -7 23 0 132
104 645 617 530 530 620 623 633 662 8 24 14 46 12 47 -2 2 -299 -293 -660
-654z"/>
<path d="M2312 667 c-358 -359 -652 -656 -652 -660 0 -4 12 -7 27 -7 23 0 136
109 675 647 573 573 646 649 631 661 -9 6 -19 12 -23 12 -3 0 -299 -294 -658
-653z"/>
<path d="M4496 650 c-339 -338 -622 -623 -627 -632 -8 -15 -5 -18 18 -18 23 0
123 95 611 583 321 320 592 594 603 610 11 15 19 37 17 50 -4 18 -106 -80
-622 -593z"/>
<path d="M2472 627 c-337 -337 -612 -616 -612 -620 0 -4 12 -7 27 -7 23 0 129
102 630 602 332 332 603 606 603 610 0 4 -8 12 -18 17 -16 8 -108 -80 -630
-602z"/>
<path d="M2627 582 c-312 -312 -567 -571 -567 -575 0 -4 12 -7 27 -7 23 0 123
96 590 562 436 435 560 565 551 575 -6 7 -16 13 -22 13 -6 0 -267 -255 -579
-568z"/>
<path d="M2785 538 c-443 -444 -526 -532 -508 -536 13 -2 35 6 50 17 16 11
253 245 527 520 433 433 498 502 487 515 -8 9 -16 16 -20 16 -3 0 -245 -239
-536 -532z"/>
<path d="M4596 550 c-284 -283 -522 -523 -527 -533 -8 -14 -5 -17 18 -17 23 0
108 81 511 483 266 265 492 494 503 510 11 15 19 37 17 50 -4 18 -89 -62 -522
-493z"/>
<path d="M967 522 c-279 -279 -507 -511 -507 -515 0 -4 12 -7 27 -7 22 0 109
82 499 471 392 392 473 478 483 511 7 22 11 42 9 44 -2 2 -232 -225 -511 -504z"/>
<path d="M1590 916 c-101 -76 -202 -171 -530 -502 -340 -342 -401 -408 -383
-412 13 -2 35 6 50 17 30 21 1001 991 993 991 -3 0 -61 -43 -130 -94z"/>
<path d="M2942 497 c-265 -265 -482 -486 -482 -490 0 -4 12 -7 27 -7 22 0 110
83 505 477 370 370 475 480 466 490 -6 7 -16 13 -22 13 -6 0 -228 -217 -494
-483z"/>
<path d="M3100 453 c-373 -374 -441 -447 -423 -451 13 -2 35 6 50 17 16 11
214 206 442 435 359 359 413 417 402 430 -8 9 -16 16 -20 16 -3 0 -206 -201
-451 -447z"/>
<path d="M4696 450 c-229 -228 -422 -423 -427 -432 -8 -15 -5 -18 18 -18 22 0
93 66 411 383 211 210 392 394 403 410 11 15 19 37 17 50 -4 18 -72 -45 -422
-393z"/>
<path d="M3261 416 c-220 -221 -401 -405 -401 -409 0 -4 12 -7 27 -7 22 0 97
70 420 392 216 216 393 395 393 398 0 3 -8 10 -19 17 -16 10 -64 -34 -420
-391z"/>
<path d="M4796 350 c-174 -173 -322 -323 -327 -332 -8 -15 -5 -18 17 -18 23 0
80 52 312 282 156 156 293 295 303 311 11 15 19 37 17 50 -4 18 -54 -28 -322
-293z"/>
<path d="M4896 250 c-119 -118 -222 -223 -227 -232 -8 -15 -5 -18 17 -18 21 0
65 37 211 183 205 202 226 227 221 260 -3 19 -37 -11 -222 -193z"/>
<path d="M4996 150 c-136 -133 -149 -150 -111 -150 18 0 49 23 111 82 102 98
127 130 122 161 -3 19 -19 7 -122 -93z"/>
</g>
</svg>
