<?xml version="1.0" encoding="iso-8859-1"?>
<!-- Generator: Adobe Illustrator 19.0.0, SVG Export Plug-In . SVG Version: 6.00 Build 0)  -->
<svg version="1.1" id="Capa_1" xmlns="http://www.w3.org/2000/svg" xmlns:xlink="http://www.w3.org/1999/xlink" x="0px" y="0px"
	 viewBox="0 0 380.713 380.713" style="enable-background:new 0 0 380.713 380.713;" xml:space="preserve">
<g>
	<g>
		<path d="M374.356,165.035c5.6-5.6,7.6-12.8,5.6-18.8c-2-6.4-7.6-10.8-15.6-12l-94-16c-6.8-1.2-16.4-8-19.6-14l-44.4-84.8
			c-3.6-7.2-9.6-11.2-16-11.2c-6.4,0-12.4,4-16,11.2l-44.4,84.4c-3.6,6.4-12.8,13.2-19.6,14.4l-94,16c-8,1.2-13.6,5.6-15.6,12
			c-2,6,0,13.2,5.6,18.8l66.4,68.4c4.8,5.2,8.4,16,7.6,22.8l-13.6,94.4c-1.2,8.4,1.6,13.6,4,16.4c5.2,6,13.6,7.2,22.4,2.8l85.2-42.4
			c6-2.8,18-2.8,24,0l85.6,42c3.6,1.6,6.8,2.4,10,2.4c4.8,0,9.2-2,12-5.2c2.4-2.8,5.2-8,4-16.4l-13.6-94.4c-1.2-6.8,2.4-18,7.6-22.8
			L374.356,165.035z M295.156,221.035c-8.8,9.2-14,25.2-12.4,38l13.6,94.4c0,0.4,0,0.4,0,0.8c-0.4,0-0.4-0.4-0.8-0.4l-85.2-42.4
			c-5.6-2.8-12.4-4-20-4c-7.2,0-14.4,1.6-20,4l-85.6,42c-0.4,0-0.4,0.4-0.8,0.4c0-0.4,0-0.4,0-0.8l13.6-94.4
			c2-12.4-3.6-28.8-12.4-38l-66-68c-0.4-0.4-0.4-0.4-0.4-0.8c0.4,0,0.4,0,0.8,0l94-16c12.4-2,26.4-12.4,32.4-23.6l44.4-84.4
			c0-0.4,0.4-0.4,0.4-0.8c0,0.4,0.4,0.4,0.4,0.8l44.4,84.4c6,11.2,19.6,21.2,32.4,23.6l94,16c0.4,0,0.4,0,0.8,0
			c-0.8,0.4-0.8,0.4-1.2,0.8L295.156,221.035z"/>
	</g>
</g>
<g>
</g>
<g>
</g>
<g>
</g>
<g>
</g>
<g>
</g>
<g>
</g>
<g>
</g>
<g>
</g>
<g>
</g>
<g>
</g>
<g>
</g>
<g>
</g>
<g>
</g>
<g>
</g>
<g>
</g>
</svg>
