<?xml version="1.0" standalone="no"?>
<!DOCTYPE svg PUBLIC "-//W3C//DTD SVG 20010904//EN"
 "http://www.w3.org/TR/2001/REC-SVG-20010904/DTD/svg10.dtd">
<svg version="1.0" xmlns="http://www.w3.org/2000/svg"
 width="512.000000pt" height="512.000000pt" viewBox="0 0 512.000000 512.000000"
 preserveAspectRatio="xMidYMid meet">
<metadata>
Created by potrace 1.15, written by Peter Selinger 2001-2017
</metadata>
<g transform="translate(0.000000,512.000000) scale(0.100000,-0.100000)"
fill="#000000" stroke="none">
<path d="M203 4958 c-174 -172 -196 -198 -191 -231 3 -19 32 5 192 163 103
102 192 193 197 203 8 14 5 17 -17 17 -21 0 -60 -33 -181 -152z"/>
<path d="M303 4858 c-140 -139 -264 -265 -275 -281 -10 -15 -18 -37 -16 -50 3
-18 49 23 292 263 158 157 292 293 297 303 8 14 5 17 -17 17 -22 0 -75 -47
-281 -252z"/>
<path d="M402 4758 c-194 -194 -362 -365 -373 -381 -11 -15 -19 -37 -17 -50 4
-18 67 40 392 363 213 212 392 393 397 403 8 14 5 17 -18 17 -22 0 -89 -62
-381 -352z"/>
<path d="M502 4658 c-249 -249 -462 -465 -473 -481 -11 -15 -19 -37 -17 -50 4
-18 84 57 492 463 268 267 492 493 497 503 8 14 5 17 -18 17 -22 0 -104 -76
-481 -452z"/>
<path d="M602 4558 c-304 -304 -562 -565 -573 -581 -11 -15 -19 -37 -17 -50 4
-18 101 75 592 563 323 322 592 593 597 603 8 14 5 17 -18 17 -23 0 -118 -91
-581 -552z"/>
<path d="M702 4458 c-359 -359 -662 -665 -673 -681 -11 -15 -19 -37 -17 -50 4
-18 118 92 692 663 378 377 692 693 697 703 8 14 5 17 -18 17 -23 0 -133 -106
-681 -652z"/>
<path d="M802 4358 c-414 -414 -762 -765 -773 -781 -11 -15 -19 -37 -17 -50 4
-18 136 109 792 763 433 432 792 793 797 803 8 14 5 17 -18 17 -23 0 -148
-120 -781 -752z"/>
<path d="M902 4258 c-469 -469 -862 -865 -873 -881 -11 -15 -19 -37 -17 -50 4
-18 153 126 892 863 488 487 892 893 897 903 8 14 5 17 -18 17 -23 0 -162
-135 -881 -852z"/>
<path d="M1002 4158 c-524 -524 -962 -965 -973 -981 -11 -15 -19 -37 -17 -50
4 -18 170 144 992 963 543 542 992 993 997 1003 8 14 5 17 -18 17 -23 0 -177
-149 -981 -952z"/>
<path d="M1102 4058 c-579 -579 -1062 -1065 -1073 -1081 -11 -15 -19 -37 -17
-50 4 -18 188 161 1092 1063 598 597 1092 1093 1097 1103 8 14 5 17 -18 17
-23 0 -191 -164 -1081 -1052z"/>
<path d="M1202 3958 c-634 -634 -1162 -1165 -1173 -1181 -11 -15 -19 -37 -17
-50 4 -18 205 178 1192 1163 653 652 1192 1193 1197 1203 8 14 5 17 -18 17
-23 0 -206 -178 -1181 -1152z"/>
<path d="M1302 3858 c-689 -689 -1262 -1265 -1273 -1281 -11 -15 -19 -37 -17
-50 4 -18 222 195 1292 1263 708 707 1292 1293 1297 1303 8 14 5 17 -18 17
-23 0 -220 -193 -1281 -1252z"/>
<path d="M1720 4075 c-808 -807 -1041 -1035 -1060 -1035 -19 0 -21 -3 -12 -12
10 -10 -59 -83 -313 -338 -267 -268 -325 -331 -325 -353 0 -23 3 -26 18 -18 9
5 163 156 342 335 179 179 329 326 335 326 5 -1 23 -12 40 -25 l30 -25 -383
-383 c-313 -314 -382 -388 -382 -410 0 -15 3 -27 7 -27 4 0 185 178 403 395
l395 395 38 -27 38 -27 -441 -441 c-363 -363 -440 -446 -440 -468 0 -15 3 -27
7 -27 4 0 211 203 459 451 486 486 452 458 509 414 18 -15 -4 -39 -478 -513
-414 -415 -497 -502 -497 -525 0 -23 3 -26 18 -18 9 5 242 235 516 510 l500
500 37 -27 38 -27 -554 -555 c-460 -461 -555 -560 -555 -583 0 -15 3 -27 7
-27 4 0 263 255 575 567 l567 566 36 -28 37 -28 -611 -611 c-508 -508 -611
-616 -611 -639 0 -15 3 -27 7 -27 4 0 289 281 633 625 l625 624 35 -29 35 -29
-667 -668 c-556 -557 -668 -673 -668 -696 0 -15 3 -27 7 -27 4 0 314 307 689
681 l682 682 37 -28 36 -28 -725 -726 c-610 -611 -726 -731 -726 -754 0 -23 3
-26 18 -18 9 5 343 336 742 735 399 399 729 726 735 726 5 -1 23 -12 40 -25
l30 -25 -783 -783 c-653 -653 -782 -787 -782 -810 0 -15 3 -27 7 -27 4 0 366
358 803 795 l795 795 38 -27 38 -27 -841 -841 c-702 -703 -840 -845 -840 -868
0 -15 3 -27 7 -27 4 0 391 383 860 852 l851 851 26 -17 c15 -9 26 -26 26 -38
0 -16 -248 -270 -885 -908 -739 -740 -885 -890 -885 -913 0 -15 3 -27 7 -27 4
0 391 384 860 852 469 469 853 850 853 847 0 -3 -14 -45 -30 -95 l-30 -89
-830 -830 c-694 -694 -830 -835 -830 -858 0 -15 3 -27 7 -27 4 0 369 361 810
802 442 442 803 800 803 797 0 -3 -14 -45 -30 -95 l-30 -89 -755 -755 c-415
-415 -755 -759 -755 -763 0 -4 12 -7 27 -7 23 0 145 118 735 707 389 389 708
705 708 702 0 -3 -14 -45 -30 -95 l-30 -89 -605 -605 c-333 -333 -605 -609
-605 -613 0 -4 12 -7 27 -7 23 0 122 95 585 557 307 307 558 555 558 552 0 -3
-14 -45 -30 -95 l-30 -89 -455 -455 c-250 -251 -455 -459 -455 -463 0 -4 12
-7 27 -7 22 0 99 72 435 407 224 224 408 405 408 403 0 -3 -13 -45 -29 -93
l-28 -89 -307 -307 c-168 -169 -306 -310 -306 -314 0 -4 12 -7 27 -7 22 0 102
75 453 424 l425 423 245 183 245 182 -597 -599 c-329 -329 -598 -602 -598
-606 0 -4 12 -7 27 -7 23 0 150 122 758 728 774 773 890 878 934 850 12 -7 21
-15 21 -18 0 -3 -342 -347 -761 -765 -418 -418 -765 -768 -770 -778 -8 -14 -5
-17 18 -17 23 0 149 122 793 765 l765 764 37 -28 37 -27 -720 -720 c-396 -395
-725 -727 -730 -737 -8 -14 -5 -17 18 -17 23 0 143 115 750 722 l722 721 36
-28 37 -28 -686 -686 c-377 -377 -686 -690 -686 -694 0 -4 12 -7 27 -7 23 0
141 114 708 680 l680 679 35 -29 35 -29 -642 -643 c-354 -354 -643 -647 -643
-651 0 -4 12 -7 27 -7 23 0 134 107 664 636 l637 637 37 -28 36 -28 -600 -601
c-331 -331 -601 -605 -601 -609 0 -4 12 -7 27 -7 23 0 127 100 618 590 325
324 595 590 600 590 6 -1 24 -12 40 -25 l30 -25 -557 -558 c-307 -306 -558
-561 -558 -565 0 -4 12 -7 27 -7 23 0 121 94 578 550 l550 550 38 -27 38 -27
-516 -516 c-283 -283 -515 -519 -515 -523 0 -4 12 -7 27 -7 22 0 115 87 534
506 545 545 507 513 564 469 18 -15 -2 -37 -453 -488 -260 -260 -472 -476
-472 -480 0 -4 12 -7 27 -7 22 0 108 81 493 464 l465 465 37 -28 37 -27 -420
-420 c-231 -230 -425 -427 -430 -436 -8 -15 -5 -18 18 -18 22 0 99 72 449 422
l423 421 36 -28 37 -28 -386 -386 c-212 -213 -386 -390 -386 -394 0 -4 12 -7
27 -7 22 0 95 68 407 379 l381 380 35 -29 35 -29 -342 -343 c-189 -189 -343
-347 -343 -351 0 -4 12 -7 27 -7 22 0 89 62 365 337 334 333 338 336 358 318
26 -23 35 -14 22 22 -10 27 5 43 639 678 544 545 649 655 649 678 0 23 -3 26
-17 18 -10 -5 -306 -298 -658 -650 l-640 -641 -16 47 -17 48 674 675 c565 567
674 680 674 703 0 23 -3 26 -17 18 -10 -5 -317 -309 -683 -675 l-665 -666 -16
47 -17 48 699 700 c587 588 699 705 699 728 0 23 -3 26 -17 18 -10 -5 -328
-321 -708 -700 l-690 -691 -16 47 -17 48 724 725 c608 609 724 730 724 753 0
23 -3 26 -17 18 -10 -5 -340 -332 -733 -725 l-715 -716 -16 48 -17 47 749 750
c629 631 749 755 749 778 0 23 -3 26 -17 18 -10 -5 -351 -343 -758 -750 l-740
-741 -16 48 -17 47 774 775 c651 652 774 780 774 803 0 23 -3 26 -17 18 -10
-5 -362 -354 -783 -775 l-765 -766 -16 48 -17 47 799 800 c672 673 799 805
799 828 0 23 -3 26 -17 18 -10 -5 -373 -366 -808 -800 l-790 -791 -16 48 -17
47 824 825 c694 695 824 830 824 853 0 23 -3 26 -17 18 -10 -5 -385 -377 -833
-825 l-815 -816 -16 48 -17 47 849 850 c710 711 849 855 849 878 0 15 -3 27
-7 27 -4 0 -145 -138 -314 -306 l-306 -306 -69 -4 -69 -5 383 384 c316 317
382 388 382 410 0 23 -3 26 -17 18 -10 -5 -198 -190 -418 -410 l-400 -401 -65
0 -65 0 483 483 c401 402 482 487 482 510 0 23 -3 26 -17 18 -10 -5 -243 -235
-518 -510 l-500 -501 -65 0 -65 0 583 583 c487 487 582 587 582 610 0 23 -3
26 -17 18 -10 -5 -288 -280 -618 -610 l-600 -601 -65 0 -65 0 683 683 c572
573 682 687 682 710 0 23 -3 26 -17 18 -10 -5 -333 -325 -718 -710 l-700 -701
-65 0 -65 0 783 783 c658 658 782 787 782 810 0 23 -3 26 -17 18 -10 -5 -378
-370 -818 -810 l-800 -801 -65 0 -65 0 883 883 c743 744 882 887 882 910 0 23
-3 26 -17 18 -10 -5 -423 -415 -918 -910 l-900 -901 -65 0 -65 0 983 983 c829
829 982 987 982 1010 0 23 -3 26 -17 18 -10 -5 -468 -460 -1018 -1010 -687
-688 -1006 -1001 -1021 -1001 -15 0 -24 10 -31 34 l-10 34 984 983 c541 541
989 992 994 1002 8 14 5 17 -18 17 -23 0 -180 -152 -1003 -975 l-976 -976 -16
49 -15 50 909 908 c500 500 914 917 919 927 8 14 5 17 -18 17 -23 0 -169 -141
-928 -900 l-901 -901 -16 49 -15 50 834 833 c459 459 839 842 844 852 8 14 5
17 -18 17 -23 0 -158 -130 -853 -825 l-826 -826 -16 49 -15 50 759 758 c418
418 764 767 769 777 8 14 5 17 -18 17 -23 0 -147 -120 -778 -750 l-751 -751
-16 49 -15 50 684 683 c376 376 689 692 694 702 8 14 5 17 -18 17 -23 0 -136
-109 -703 -675 l-676 -676 -16 50 -15 49 609 608 c335 335 614 617 619 627 8
14 5 17 -18 17 -23 0 -125 -98 -628 -600 l-601 -601 -16 50 -15 49 534 533
c294 294 539 542 544 552 8 14 5 17 -18 17 -23 0 -114 -87 -553 -525 l-526
-526 -16 50 -15 49 459 458 c253 253 464 467 469 477 8 14 5 17 -18 17 -22 0
-103 -76 -478 -450 l-451 -451 -16 50 -15 49 384 383 c211 211 389 392 394
402 8 14 5 17 -18 17 -22 0 -92 -65 -403 -375 l-376 -375 -16 49 -15 49 309
308 c170 170 314 317 319 327 8 14 5 17 -18 17 -23 0 -189 -161 -1063 -1035
l-1035 -1035 -65 0 -65 0 1028 1028 c565 565 1027 1031 1027 1035 0 4 -12 7
-27 7 -23 0 -195 -167 -1063 -1035 l-1035 -1035 -65 0 -65 0 1028 1028 c565
565 1027 1031 1027 1035 0 4 -12 7 -27 7 -23 0 -195 -167 -1063 -1035z m780
239 l-30 -89 -593 -592 -592 -593 -65 0 -65 0 685 685 c376 376 685 683 687
681 2 -1 -11 -43 -27 -92z m-100 -300 l-30 -89 -443 -442 -442 -443 -65 0 -65
0 535 535 c294 294 535 533 537 531 2 -1 -11 -43 -27 -92z m127 -131 c-61 -62
-112 -111 -114 -109 -2 1 11 43 27 92 28 80 37 95 98 157 l67 67 16 -47 17
-48 -111 -112z m-25 -225 c-102 -103 -187 -186 -189 -184 -2 1 11 43 27 92
l30 89 143 143 142 142 16 -47 17 -48 -186 -187z m-202 56 l-30 -89 -293 -292
-292 -293 -65 0 -65 0 385 385 c211 211 385 383 387 381 2 -1 -11 -43 -27 -92z
m177 -281 c-144 -144 -262 -261 -264 -259 -2 1 11 43 27 92 l30 89 218 218
217 217 16 -47 17 -48 -261 -262z m-262 -462 l-573 -574 -37 28 -36 28 253
254 c224 224 256 253 284 253 29 0 34 4 48 48 14 40 57 87 309 340 l292 292
16 -47 17 -48 -573 -574z m-15 443 l-30 -89 -143 -142 -142 -143 -65 0 -65 0
235 235 c129 129 235 233 237 231 2 -1 -11 -43 -27 -92z m97 -561 l-540 -541
-34 25 c-18 14 -33 28 -33 32 0 3 251 257 557 563 l558 558 16 -47 17 -48
-541 -542z m83 -117 l-509 -509 -36 28 -37 28 528 528 529 529 16 -47 17 -48
-508 -509z m-3 -203 c-309 -309 -562 -561 -564 -559 -2 1 11 43 27 92 l30 89
518 518 517 517 16 -47 17 -48 -561 -562z m613 427 c5 -3 -281 -296 -635 -650
-355 -355 -645 -642 -645 -639 0 3 14 45 30 95 l30 89 593 592 592 593 13 -37
c7 -20 17 -40 22 -43z m940 -475 l-525 -525 -16 47 -17 48 282 283 c269 271
292 293 536 477 140 107 257 194 260 194 3 1 -231 -235 -520 -524z m-2634 366
l-109 -110 -38 27 -38 27 82 83 82 82 65 0 65 0 -109 -109z m158 -42 c-162
-162 -153 -157 -209 -114 -19 15 -14 20 105 140 l125 125 65 0 65 0 -151 -151z
m157 -43 c-107 -107 -199 -192 -205 -189 -6 4 -24 16 -39 27 l-28 20 168 168
168 168 65 0 65 0 -194 -194z m159 -41 c-129 -129 -239 -235 -245 -235 -5 1
-23 12 -40 25 l-30 25 210 210 210 210 65 0 65 0 -235 -235z m640 -560 c-437
-437 -795 -793 -797 -791 -2 1 11 43 27 92 l30 89 703 703 702 702 65 0 65 0
-795 -795z m50 -150 c-519 -519 -945 -943 -947 -941 -2 1 11 43 27 92 l30 89
853 853 852 852 65 0 65 0 -945 -945z m205 4 c-827 -828 -956 -953 -1077
-1045 -76 -57 -140 -104 -142 -104 -3 0 2 19 10 43 12 35 178 205 1017 1045
l1002 1002 65 0 65 0 -940 -941z m500 300 l-640 -641 -260 -195 -260 -195 835
836 835 836 65 0 65 0 -640 -641z m490 291 c-193 -193 -367 -362 -387 -376
-21 -15 -36 -30 -33 -33 2 -4 -124 -135 -280 -291 l-284 -283 -36 28 -37 28
638 638 639 639 65 0 65 0 -350 -350z m510 309 c-22 -23 -157 -129 -300 -236
l-260 -195 235 236 235 236 64 0 65 0 -39 -41z m-1128 -1126 l-251 -252 -37
27 -38 27 272 273 272 272 16 -47 17 -48 -251 -252z m83 -117 c-233 -235 -219
-225 -275 -181 -19 15 -9 26 220 255 l240 240 16 -47 17 -48 -218 -219z m252
113 l16 -46 -187 -187 -186 -186 -38 27 -38 27 208 208 c114 114 208 206 209
205 0 -1 8 -23 16 -48z m-85 -346 c-84 -84 -156 -153 -162 -153 -5 1 -23 12
-40 25 l-30 25 175 175 175 175 16 -47 17 -48 -151 -152z m78 -122 l-123 -124
-37 28 -36 28 143 144 143 143 16 -47 17 -48 -123 -124z m82 -118 l-90 -92
-34 26 c-18 14 -33 28 -33 32 0 3 48 54 107 113 l108 108 16 -47 17 -48 -91
-92z m83 -117 l-59 -59 -36 28 -37 28 78 78 79 79 16 -47 17 -48 -58 -59z"/>
<path d="M4196 950 c-504 -503 -922 -923 -927 -932 -8 -15 -5 -18 18 -18 23 0
167 139 911 882 486 486 892 895 903 911 11 15 19 37 17 50 -4 18 -158 -132
-922 -893z"/>
<path d="M4296 850 c-449 -448 -822 -823 -827 -832 -8 -15 -5 -18 18 -18 23 0
152 124 811 783 431 430 792 794 803 810 11 15 19 37 17 50 -4 18 -141 -114
-822 -793z"/>
<path d="M4396 750 c-394 -393 -722 -723 -727 -732 -8 -15 -5 -18 18 -18 23 0
137 110 711 683 376 375 692 694 703 710 11 15 19 37 17 50 -4 18 -124 -97
-722 -693z"/>
<path d="M4496 650 c-339 -338 -622 -623 -627 -632 -8 -15 -5 -18 18 -18 23 0
123 95 611 583 321 320 592 594 603 610 11 15 19 37 17 50 -4 18 -106 -80
-622 -593z"/>
<path d="M4596 550 c-284 -283 -522 -523 -527 -533 -8 -14 -5 -17 18 -17 23 0
108 81 511 483 266 265 492 494 503 510 11 15 19 37 17 50 -4 18 -89 -62 -522
-493z"/>
<path d="M4696 450 c-229 -228 -422 -423 -427 -432 -8 -15 -5 -18 18 -18 22 0
93 66 411 383 211 210 392 394 403 410 11 15 19 37 17 50 -4 18 -72 -45 -422
-393z"/>
<path d="M4796 350 c-174 -173 -322 -323 -327 -332 -8 -15 -5 -18 17 -18 23 0
80 52 312 282 156 156 293 295 303 311 11 15 19 37 17 50 -4 18 -54 -28 -322
-293z"/>
<path d="M4896 250 c-119 -118 -222 -223 -227 -232 -8 -15 -5 -18 17 -18 21 0
65 37 211 183 205 202 226 227 221 260 -3 19 -37 -11 -222 -193z"/>
<path d="M4996 150 c-136 -133 -149 -150 -111 -150 18 0 49 23 111 82 102 98
127 130 122 161 -3 19 -19 7 -122 -93z"/>
</g>
</svg>
